#!OML:ASF H:\Terrain\Patient Classification 1\Terrain2\Thursday\justin.ASF
:FULLY-SPECIFIED
:DEGREES
1311
root 1.46683 17.8914 20.6987 406.402 -81.2349 312.748
lowerback 6.51297 0.961722 6.79999
upperback 2.68577 1.57654 4.71687
thorax -0.810824 0.728124 0.954092
lowerneck -10.9818 -3.58635 -10.7568
upperneck 38.5567 -6.78925 6.30677
head 16.2087 -4.13232 3.39043
rclavicle 1.17283e-014 -1.35174e-014
rhumerus -30.817 -6.10013 -78.3727
rradius 43.9755
rwrist -16.2629
rhand -21.0736 13.8414
rfingers 7.12502
rthumb 5.30332 -16.0722
lclavicle 1.17283e-014 -1.35174e-014
lhumerus -36.8687 2.51916 89.0194
lradius 37.9873
lwrist 4.08052
lhand -18.8838 20.6045
lfingers 7.12502
lthumb 7.41733 50.4545
rfemur -8.29872 -5.52938 29.5843
rtibia 25.3592
rfoot -12.6049 -0.598076
rtoes 7.64958
lfemur -20.2757 -14.0243 -7.11289
ltibia 38.5014
lfoot -11.8473 -15.4689
ltoes 5.5259
1312
root 1.41884 17.8889 20.7097 406.92 -81.3283 312.468
lowerback 6.45128 0.943985 6.6583
upperback 2.57753 1.54972 4.76235
thorax -0.895633 0.711462 1.08126
lowerneck -11.0548 -3.5437 -10.6877
upperneck 38.6417 -6.67247 6.11744
head 16.2439 -4.09989 3.31439
rclavicle 2.79292e-014 -9.54166e-015
rhumerus -30.7902 -6.15083 -78.2911
rradius 44.1853
rwrist -16.0251
rhand -21.0289 13.7259
rfingers 7.12502
rthumb 5.34644 -16.1867
lclavicle 2.79292e-014 -9.54166e-015
lhumerus -36.8449 2.32677 89.1882
lradius 38.3372
lwrist 4.38533
lhand -19.128 21.1644
lfingers 7.12502
lthumb 7.18164 51.0225
rfemur -8.49823 -5.35388 29.5622
rtibia 25.618
rfoot -12.911 -0.689287
rtoes 7.263
lfemur -20.5635 -15.2957 -6.71569
ltibia 36.7405
lfoot -11.8351 -15.8795
ltoes 3.27935
1313
root 1.37027 17.8948 20.7314 408.665 -81.3709 310.916
lowerback 6.38802 0.966728 6.97129
upperback 2.52751 1.59475 4.73162
thorax -0.900044 0.734349 0.873921
lowerneck -11.2294 -3.56761 -10.6179
upperneck 38.7489 -6.69554 6.05015
head 16.3403 -4.10772 3.26738
rclavicle 1.65985e-014 8.0309e-014
rhumerus -30.6934 -6.00907 -78.2654
rradius 44.4395
rwrist -15.9804
rhand -20.8462 13.368
rfingers 7.12502
rthumb 5.52282 -16.54
lclavicle 1.65985e-014 8.0309e-014
lhumerus -36.7253 2.11923 89.2749
lradius 38.5759
lwrist 4.56108
lhand -19.4824 21.3421
lfingers 7.12502
lthumb 6.8395 51.2116
rfemur -8.73827 -5.63756 29.641
rtibia 26.0699
rfoot -13.5094 -0.327115
rtoes 6.98193
lfemur -20.7511 -16.4628 -6.19529
ltibia 34.9527
lfoot -11.2762 -16.6013
ltoes 3.19145
1314
root 1.32633 17.8838 20.7573 408.959 -81.8872 310.826
lowerback 6.36048 1.01659 6.67407
upperback 2.47808 1.65064 4.62004
thorax -0.941007 0.763143 0.918579
lowerneck -11.2074 -3.54636 -10.6988
upperneck 38.6662 -6.64751 6.08817
head 16.2908 -4.09282 3.30562
rclavicle 2.14687e-014 3.10104e-014
rhumerus -30.6016 -5.33777 -78.2931
rradius 44.7088
rwrist -16.627
rhand -20.9492 12.8821
rfingers 7.12502
rthumb 5.42341 -17.0285
lclavicle 2.14687e-014 3.10104e-014
lhumerus -36.5762 2.50121 88.9381
lradius 38.4475
lwrist 2.97933
lhand -17.5912 19.7598
lfingers 7.12502
lthumb 8.66482 49.562
rfemur -8.93465 -5.43279 29.1141
rtibia 26.4282
rfoot -13.8141 0.0304477
rtoes 6.41674
lfemur -20.9574 -17.289 -6.26466
ltibia 33.3564
lfoot -10.4771 -17.7421
ltoes 5.18714
1315
root 1.28191 17.9089 20.774 409.833 -82.3284 310.06
lowerback 6.46283 1.03914 6.26363
upperback 2.41361 1.67502 4.64081
thorax -1.07853 0.771353 1.16286
lowerneck -11.2217 -3.5 -10.9146
upperneck 38.7245 -6.52997 6.09196
head 16.3218 -4.07962 3.36703
rclavicle -4.87022e-015 -4.21423e-014
rhumerus -30.5945 -4.72879 -78.3474
rradius 44.9071
rwrist -17.3079
rhand -21.6239 12.8528
rfingers 7.12502
rthumb 4.77195 -17.0734
lclavicle -4.87022e-015 -4.21423e-014
lhumerus -36.4958 3.31211 88.3839
lradius 38.2714
lwrist 0.349695
lhand -14.2656 18.0636
lfingers 7.12502
lthumb 11.873 47.707
rfemur -8.96467 -5.73173 28.8838
rtibia 26.901
rfoot -14.3608 0.115301
rtoes -0.29208
lfemur -20.9699 -17.9252 -6.23211
ltibia 31.7849
lfoot -9.40997 -18.9473
ltoes 7.14479
1316
root 1.2389 17.8996 20.794 411.646 -82.4791 308.394
lowerback 6.49378 1.01858 6.23141
upperback 2.36103 1.65282 4.67219
thorax -1.15283 0.757696 1.21369
lowerneck -11.3565 -3.48019 -10.8948
upperneck 38.8648 -6.45824 5.95264
head 16.4136 -4.06933 3.31412
rclavicle 9.44227e-015 5.40694e-014
rhumerus -30.5696 -4.63142 -78.3696
rradius 45.0905
rwrist -17.5168
rhand -21.716 13.0833
rfingers 7.12502
rthumb 4.68299 -16.8449
lclavicle 9.44227e-015 5.40694e-014
lhumerus -36.3584 3.47088 88.3326
lradius 38.5197
lwrist -0.327478
lhand -13.9073 20.0169
lfingers 7.12502
lthumb 12.2185 49.64
rfemur -9.1756 -5.16004 28.8596
rtibia 27.2993
rfoot -14.5948 -0.0162449
rtoes -0.693347
lfemur -21.2179 -18.2598 -5.93578
ltibia 30.4667
lfoot -8.20971 -20.3499
ltoes 8.08563
1317
root 1.19833 17.9041 20.8159 412.651 -83.0234 307.67
lowerback 6.45928 1.09008 5.90452
upperback 2.26931 1.73956 4.50043
thorax -1.2328 0.802851 1.21012
lowerneck -11.3269 -3.45852 -10.6053
upperneck 38.8088 -6.44125 5.78488
head 16.3509 -4.04098 3.18884
rclavicle -7.7526e-015 -7.95139e-016
rhumerus -30.5234 -4.81165 -78.3294
rradius 45.1729
rwrist -17.4245
rhand -21.0881 13.0635
rfingers 7.12502
rthumb 5.2893 -16.8505
lclavicle -7.7526e-015 -7.95139e-016
lhumerus -36.3036 2.50605 88.973
lradius 38.7827
lwrist 2.84055
lhand -17.5479 20.2766
lfingers 7.12502
lthumb 8.70668 50.077
rfemur -9.42906 -4.76138 28.4299
rtibia 27.6331
rfoot -14.8189 -0.0949079
rtoes -1.96912
lfemur -21.5878 -18.1707 -6.12915
ltibia 29.3584
lfoot -6.85965 -21.9634
ltoes 9.4857
1318
root 1.15427 17.9084 20.835 415.514 -83.3981 304.95
lowerback 6.54977 1.19259 5.82972
upperback 2.1935 1.88825 4.40182
thorax -1.35817 0.875872 1.1359
lowerneck -11.2344 -3.44548 -10.5034
upperneck 38.733 -6.48487 5.84956
head 16.29 -4.03744 3.19123
rclavicle 7.7526e-015 3.97569e-015
rhumerus -30.456 -5.20047 -78.3057
rradius 45.0545
rwrist -17.1273
rhand -20.8547 13.1014
rfingers 7.12502
rthumb 5.51466 -16.8069
lclavicle 7.7526e-015 3.97569e-015
lhumerus -36.2658 2.14273 89.0355
lradius 38.7638
lwrist 3.39334
lhand -17.767 19.4182
lfingers 7.12502
lthumb 8.49523 49.2273
rfemur -9.4169 -4.28369 28.2843
rtibia 27.7359
rfoot -14.9757 -0.189294
rtoes -3.57856
lfemur -21.8663 -17.6598 -6.15737
ltibia 28.6101
lfoot -5.05965 -23.7354
ltoes 12.513
1319
root 1.10973 17.8941 20.8535 419.966 -83.2569 300.469
lowerback 6.66776 1.20532 6.18429
upperback 2.23113 1.92801 4.54223
thorax -1.37549 0.891112 1.08007
lowerneck -11.283 -3.45741 -10.8151
upperneck 38.7254 -6.51932 6.1143
head 16.3306 -4.06411 3.35826
rclavicle -2.83268e-014 -6.52014e-014
rhumerus -30.3781 -5.22458 -78.3197
rradius 45.1428
rwrist -17.1689
rhand -21.3616 12.9198
rfingers 7.12502
rthumb 5.02518 -17.0007
lclavicle -2.83268e-014 -6.52014e-014
lhumerus -36.0812 2.56853 88.6471
lradius 38.5313
lwrist 1.47868
lhand -15.2379 17.8532
lfingers 7.12502
lthumb 10.9353 47.5484
rfemur -9.2469 -3.8787 28.6425
rtibia 27.8092
rfoot -15.1971 -0.210635
rtoes -3.85905
lfemur -22.0005 -16.6298 -5.79097
ltibia 27.9997
lfoot -2.31812 -25.9109
ltoes 16.1997
1320
root 1.07374 17.8924 20.8674 423.444 -83.578 296.993
lowerback 6.82492 1.27431 5.95609
upperback 2.2781 2.01563 4.54618
thorax -1.42083 0.93375 1.20112
lowerneck -11.2541 -3.45411 -11.0841
upperneck 38.5917 -6.53627 6.38977
head 16.2811 -4.07221 3.52404
rclavicle 1.20265e-014 1.90833e-014
rhumerus -30.4004 -4.93844 -78.3762
rradius 45.3964
rwrist -17.5684
rhand -21.704 12.5631
rfingers 7.12502
rthumb 4.69464 -17.3649
lclavicle 1.20265e-014 1.90833e-014
lhumerus -35.9631 2.54837 88.5531
lradius 38.652
lwrist 0.809393
lhand -14.3506 17.8378
lfingers 7.12502
lthumb 11.791 47.4859
rfemur -9.13528 -3.31017 28.4904
rtibia 27.8262
rfoot -15.3078 -0.168235
rtoes -2.98567
lfemur -22.1069 -15.4911 -5.96273
ltibia 27.5081
lfoot 0.834772 -27.8471
ltoes 18.3341
1321
root 1.04332 17.8802 20.8808 426.493 -84.2004 293.971
lowerback 7.01761 1.3138 5.50084
upperback 2.29936 2.05884 4.33511
thorax -1.51526 0.957784 1.22719
lowerneck -11.23 -3.3754 -11.0178
upperneck 38.4834 -6.48466 6.53267
head 16.2125 -4.02216 3.58231
rclavicle -4.21423e-014 -5.1684e-014
rhumerus -30.3591 -4.85744 -78.6017
rradius 45.4335
rwrist -17.7009
rhand -21.5298 12.728
rfingers 7.12502
rthumb 4.86283 -17.1962
lclavicle -4.21423e-014 -5.1684e-014
lhumerus -35.9657 2.29022 88.4995
lradius 38.9831
lwrist 1.30409
lhand -15.1906 18.7656
lfingers 7.12502
lthumb 10.9809 48.4584
rfemur -9.12139 -2.12846 27.9616
rtibia 27.8322
rfoot -15.227 -0.24982
rtoes 0.4636
lfemur -22.2559 -14.5693 -6.45584
ltibia 27.115
lfoot 4.45846 -29.1666
ltoes 20.2361
